# xmcd
#
# Track frame offsets: 
#        150
#        12653
#        27256
#        43537
#        59816
#        82258
#        95504
#        111320
#        130087
#        148415
#        162471
#
# Disc length: 2394 seconds
#
# Revision: 0
# Processed by: cddbd v1.5.2PL0 Copyright (c) Steve Scherf et al.
# Submitted via: ExactAudioCopyFreeDBPlugin 1.0
#
DISCID=a609580b
DTITLE=Stina Stenerud and Her Soul Replacement - Coming Home
DYEAR=2012
DGENRE=Soul
TTITLE0=I Just Dropped In To See What Condition My Condition Was In
TTITLE1=Carefree
TTITLE2=Sing Like me
TTITLE3=Truth
TTITLE4=Coming Home
TTITLE5=Don't Turn Your Header Down (feat. Adam Douglas)
TTITLE6=Cutting Room
TTITLE7=Call Home
TTITLE8=Keep On Looking
TTITLE9=Do Your Duty
TTITLE10=Hymn For Ellie
EXTD=
EXTT0=
EXTT1=
EXTT2=
EXTT3=
EXTT4=
EXTT5=
EXTT6=
EXTT7=
EXTT8=
EXTT9=
EXTT10=
PLAYORDER=
